<svg xmlns="http://www.w3.org/2000/svg" viewBox="0 0 32 32">
  <defs>
    <linearGradient id="leafGrad" x1="0%" y1="0%" x2="100%" y2="100%">
      <stop offset="0%" stop-color="#34d399" />
      <stop offset="100%" stop-color="#059669" />
    </linearGradient>
    <filter id="glow">
      <feGaussianBlur stdDeviation="1" result="coloredBlur"/>
      <feMerge>
        <feMergeNode in="coloredBlur"/>
        <feMergeNode in="SourceGraphic"/>
      </feMerge>
    </filter>
  </defs>
  <!-- Beautiful Premium filled organic Leaf Vector -->
  <path d="M16 4C16 4 6 12 6 22C6 26.418 9.582 30 14 30C15.105 30 16 29.105 16 28C16 27.448 15.552 27 15 27C12.791 27 11 25.209 11 23C11 21.037 12.356 19.389 14.168 19.062C14.734 18.96 15 18.423 15 17.893C15 17.362 14.542 16.969 14.022 17.062C11.668 17.487 10 19.548 10 22C10 24.761 12.239 27 15 27V28C14.448 28 14 27.552 14 27V4C14 4 24 12 24 22C24 26.418 20.418 30 16 30C16 30 16 12 16 4Z" fill="url(#leafGrad)" filter="url(#glow)" />
  <path d="M16 4 C24 12, 24 22, 16 28" fill="none" stroke="#fff" stroke-width="0.5" stroke-dasharray="2 1" opacity="0.4" />
</svg>