<svg xmlns="http://www.w3.org/2000/svg" viewBox="0 0 24 24" width="32" height="32">
  <path d="M17 3H21V7H17V3M21 3L12 12M12 12C12 12 11 11 9 11C6.24 11 4 13.24 4 16C4 18.76 6.24 21 9 21C11.76 21 14 18.76 14 16C14 14 13 13 13 13M12 12L13 13M12 12C12 12 13 11 15 11C17.76 11 20 13.24 20 16C20 18.76 17.76 21 15 21C12.24 21 10 18.76 10 16C10 14 11 13 11 13" stroke="#10b981" stroke-width="2" stroke-linecap="round" stroke-linejoin="round" fill="none"/>
  <path d="M4.93 4.93L13.41 13.41" stroke="#10b981" stroke-width="2" stroke-linecap="round" stroke-linejoin="round" fill="none"/>
</svg>